<?xml version="1.0" encoding="utf-8"?>
<!-- Generator: Adobe Illustrator 22.1.0, SVG Export Plug-In . SVG Version: 6.00 Build 0)  -->
<svg version="1.1" id="Layer_1" xmlns="http://www.w3.org/2000/svg" xmlns:xlink="http://www.w3.org/1999/xlink" x="0px" y="0px"
	 viewBox="0 0 380 41" style="enable-background:new 0 0 380 41;" xml:space="preserve">
<style type="text/css">
	.st0{enable-background:new    ;}
	.st1{fill:#FFFFFF;}
</style>
<image style="overflow:visible;enable-background:new    ;" width="380" height="41" id="Layer_1_copy" xlink:href="F2C3D4B1.jpg" >
</image>
<g id="Zaloguj_się_przy_użyciu_danych_firmy_Microsoft" class="st0">
	<path class="st1" d="M53.7,16L48,24.3h5.6v1.5h-8.1v-0.8l5.7-8.2H46v-1.5h7.7V16z"/>
	<path class="st1" d="M60.9,25.7h-1.6v-1.2h0c-0.5,0.9-1.3,1.3-2.3,1.3c-0.7,0-1.3-0.2-1.7-0.6c-0.4-0.4-0.6-0.9-0.6-1.6
		c0-1.4,0.8-2.2,2.4-2.5l2.2-0.3c0-1.1-0.5-1.6-1.5-1.6c-0.9,0-1.7,0.3-2.4,0.9v-1.5c0.8-0.5,1.7-0.7,2.7-0.7c1.9,0,2.8,0.9,2.8,2.8
		V25.7z M59.3,22.1l-1.6,0.2c-0.5,0.1-0.9,0.2-1.1,0.4c-0.2,0.2-0.4,0.5-0.4,0.9c0,0.3,0.1,0.6,0.3,0.8c0.2,0.2,0.5,0.3,0.9,0.3
		c0.5,0,0.9-0.2,1.3-0.5c0.3-0.4,0.5-0.8,0.5-1.4V22.1z"/>
	<path class="st1" d="M64.6,25.7h-1.7v-11h1.7V25.7z"/>
	<path class="st1" d="M70.1,25.9c-1.1,0-2.1-0.3-2.8-1c-0.7-0.7-1-1.6-1-2.8c0-1.3,0.4-2.2,1.1-2.9c0.7-0.7,1.7-1.1,2.9-1.1
		c1.2,0,2.1,0.3,2.7,1s1,1.6,1,2.8c0,1.2-0.4,2.1-1.1,2.9C72.3,25.5,71.3,25.9,70.1,25.9z M70.2,19.4c-0.7,0-1.2,0.2-1.6,0.7
		c-0.4,0.5-0.6,1.1-0.6,1.9c0,0.8,0.2,1.4,0.6,1.8c0.4,0.4,0.9,0.7,1.6,0.7c0.7,0,1.2-0.2,1.5-0.7c0.4-0.4,0.5-1.1,0.5-1.9
		c0-0.8-0.2-1.5-0.5-1.9C71.4,19.7,70.9,19.4,70.2,19.4z"/>
	<path class="st1" d="M82.5,25.1c0,2.7-1.4,4.1-4.1,4.1c-1,0-1.8-0.2-2.5-0.5v-1.5c0.8,0.5,1.6,0.7,2.3,0.7c1.8,0,2.7-0.9,2.7-2.6
		v-0.8h0c-0.6,1-1.4,1.4-2.5,1.4c-0.9,0-1.6-0.3-2.2-1c-0.6-0.7-0.8-1.6-0.8-2.7c0-1.3,0.3-2.3,0.9-3s1.4-1.1,2.5-1.1
		c1,0,1.7,0.4,2.2,1.2h0v-1h1.7V25.1z M80.8,22.3v-1c0-0.5-0.2-1-0.5-1.3s-0.8-0.6-1.3-0.6c-0.6,0-1.1,0.2-1.5,0.7
		c-0.4,0.5-0.5,1.1-0.5,2c0,0.7,0.2,1.3,0.5,1.8c0.3,0.4,0.8,0.7,1.4,0.7c0.6,0,1.1-0.2,1.4-0.6S80.8,23,80.8,22.3z"/>
	<path class="st1" d="M91.2,25.7h-1.7v-1.2h0c-0.5,0.9-1.3,1.4-2.3,1.4c-1.8,0-2.6-1.1-2.6-3.2v-4.5h1.7v4.3c0,1.3,0.5,2,1.5,2
		c0.5,0,0.9-0.2,1.2-0.6c0.3-0.4,0.5-0.9,0.5-1.4v-4.3h1.7V25.7z"/>
	<path class="st1" d="M95.1,25.4c0,1.2-0.3,2.2-0.8,2.8s-1.2,1-2.2,1c-0.4,0-0.7-0.1-1-0.2v-1.4c0.3,0.2,0.6,0.3,0.9,0.3
		c1,0,1.4-0.8,1.4-2.5v-7.1h1.7V25.4z M94.3,16.7c-0.3,0-0.5-0.1-0.7-0.3c-0.2-0.2-0.3-0.4-0.3-0.7s0.1-0.5,0.3-0.7
		c0.2-0.2,0.4-0.3,0.7-0.3c0.3,0,0.5,0.1,0.7,0.3c0.2,0.2,0.3,0.4,0.3,0.7c0,0.3-0.1,0.5-0.3,0.7C94.8,16.6,94.6,16.7,94.3,16.7z"/>
	<path class="st1" d="M100.9,25.5v-1.6c0.6,0.5,1.3,0.7,2.1,0.7c1,0,1.5-0.3,1.5-0.9c0-0.2,0-0.3-0.1-0.4c-0.1-0.1-0.2-0.2-0.4-0.3
		c-0.1-0.1-0.3-0.2-0.5-0.2c-0.2-0.1-0.4-0.2-0.7-0.2c-0.3-0.1-0.6-0.2-0.8-0.4c-0.2-0.1-0.4-0.3-0.6-0.5c-0.2-0.2-0.3-0.4-0.4-0.6
		c-0.1-0.2-0.1-0.5-0.1-0.8c0-0.4,0.1-0.7,0.3-0.9c0.2-0.3,0.4-0.5,0.7-0.7s0.6-0.3,1-0.4c0.4-0.1,0.7-0.1,1.1-0.1
		c0.7,0,1.3,0.1,1.8,0.3v1.5c-0.5-0.4-1.1-0.5-1.8-0.5c-0.2,0-0.4,0-0.6,0.1c-0.2,0-0.3,0.1-0.4,0.2s-0.2,0.2-0.3,0.3
		c-0.1,0.1-0.1,0.2-0.1,0.4c0,0.2,0,0.3,0.1,0.4c0.1,0.1,0.2,0.2,0.3,0.3c0.1,0.1,0.3,0.2,0.5,0.2c0.2,0.1,0.4,0.1,0.6,0.2
		c0.3,0.1,0.6,0.3,0.9,0.4c0.3,0.1,0.5,0.3,0.7,0.5c0.2,0.2,0.3,0.4,0.4,0.6s0.1,0.5,0.1,0.8c0,0.4-0.1,0.7-0.3,1
		c-0.2,0.3-0.4,0.5-0.7,0.7s-0.6,0.3-1,0.4c-0.4,0.1-0.8,0.1-1.2,0.1C102.2,25.9,101.5,25.8,100.9,25.5z"/>
	<path class="st1" d="M108.7,16.7c-0.3,0-0.5-0.1-0.7-0.3c-0.2-0.2-0.3-0.4-0.3-0.7s0.1-0.5,0.3-0.7c0.2-0.2,0.4-0.3,0.7-0.3
		c0.3,0,0.5,0.1,0.7,0.3c0.2,0.2,0.3,0.4,0.3,0.7c0,0.3-0.1,0.5-0.3,0.7C109.2,16.6,109,16.7,108.7,16.7z M109.5,25.7h-1.7v-7.5h1.7
		V25.7z"/>
	<path class="st1" d="M118,22.4h-5.1c0,0.7,0.2,1.2,0.6,1.6c0.4,0.4,1,0.6,1.7,0.6c0.8,0,1.5-0.2,2.2-0.7v1.4
		c-0.7,0.4-1.6,0.6-2.7,0.6c-1.1,0-2-0.3-2.6-1c-0.6-0.7-0.9-1.6-0.9-2.9c0-1.2,0.3-2.1,1-2.8c0.7-0.7,1.5-1.1,2.6-1.1
		s1.8,0.3,2.4,1c0.6,0.7,0.8,1.6,0.8,2.7V22.4z M116.4,21.3c0-0.6-0.1-1.1-0.4-1.4c-0.3-0.3-0.7-0.5-1.2-0.5c-0.5,0-0.9,0.2-1.2,0.5
		s-0.5,0.8-0.6,1.4H116.4z M116.3,25.7c-0.7,0.7-1.1,1.2-1.1,1.6c0,0.3,0.2,0.5,0.5,0.5c0.2,0,0.3,0,0.5-0.1v0.9
		c-0.2,0.1-0.4,0.1-0.8,0.1c-0.4,0-0.7-0.1-0.9-0.3c-0.2-0.2-0.3-0.5-0.3-0.8c0-0.6,0.4-1.2,1.2-1.8H116.3z"/>
	<path class="st1" d="M125.4,24.6L125.4,24.6l0,4.5h-1.7V18.3h1.7v1.3h0c0.6-1,1.4-1.5,2.5-1.5c0.9,0,1.7,0.3,2.2,1
		c0.5,0.7,0.8,1.6,0.8,2.7c0,1.2-0.3,2.2-0.9,3s-1.4,1.1-2.4,1.1C126.7,25.9,126,25.5,125.4,24.6z M125.4,21.7v0.9
		c0,0.5,0.2,1,0.5,1.4c0.3,0.4,0.8,0.6,1.3,0.6c0.6,0,1.1-0.2,1.5-0.7s0.5-1.2,0.5-2c0-0.7-0.2-1.3-0.5-1.7
		c-0.3-0.4-0.8-0.6-1.3-0.6c-0.6,0-1.1,0.2-1.5,0.6S125.4,21,125.4,21.7z"/>
	<path class="st1" d="M137,19.9c-0.2-0.2-0.5-0.2-0.9-0.2c-0.5,0-0.9,0.2-1.3,0.7c-0.3,0.5-0.5,1.1-0.5,1.8v3.6h-1.7v-7.5h1.7v1.5h0
		c0.2-0.5,0.4-0.9,0.8-1.2s0.7-0.4,1.1-0.4c0.3,0,0.5,0,0.7,0.1V19.9z"/>
	<path class="st1" d="M144,19l-4,5.4h4v1.3h-6.4v-0.6l4.1-5.5H138v-1.3h6V19z"/>
	<path class="st1" d="M151.9,18.3l-3.4,8.6c-0.7,1.5-1.7,2.3-2.9,2.3c-0.4,0-0.6,0-0.9-0.1v-1.4c0.3,0.1,0.5,0.1,0.7,0.1
		c0.6,0,1.1-0.3,1.4-0.9l0.5-1.2l-3-7.4h1.9l1.8,5.4c0,0.1,0.1,0.2,0.1,0.5h0c0-0.1,0.1-0.3,0.1-0.5l1.9-5.4H151.9z"/>
	<path class="st1" d="M163.6,25.7h-1.7v-1.2h0c-0.5,0.9-1.3,1.4-2.3,1.4c-1.8,0-2.6-1.1-2.6-3.2v-4.5h1.7v4.3c0,1.3,0.5,2,1.5,2
		c0.5,0,0.9-0.2,1.2-0.6c0.3-0.4,0.5-0.9,0.5-1.4v-4.3h1.7V25.7z"/>
	<path class="st1" d="M171.3,19l-4,5.4h4v1.3h-6.4v-0.6l4.1-5.5h-3.7v-1.3h6V19z M168.3,17c-0.2,0-0.5-0.1-0.6-0.2
		c-0.2-0.2-0.3-0.4-0.3-0.6c0-0.2,0.1-0.4,0.3-0.6s0.4-0.2,0.6-0.2c0.2,0,0.5,0.1,0.6,0.2c0.2,0.2,0.3,0.4,0.3,0.6
		c0,0.2-0.1,0.4-0.3,0.6C168.8,16.9,168.6,17,168.3,17z"/>
	<path class="st1" d="M179.2,18.3l-3.4,8.6c-0.7,1.5-1.7,2.3-2.9,2.3c-0.4,0-0.6,0-0.9-0.1v-1.4c0.3,0.1,0.5,0.1,0.7,0.1
		c0.6,0,1.1-0.3,1.4-0.9l0.5-1.2l-3-7.4h1.9l1.8,5.4c0,0.1,0.1,0.2,0.1,0.5h0c0-0.1,0.1-0.3,0.1-0.5l1.9-5.4H179.2z"/>
	<path class="st1" d="M185.5,25.4c-0.6,0.3-1.3,0.5-2.1,0.5c-1.1,0-2-0.3-2.7-1c-0.7-0.7-1-1.6-1-2.7c0-1.2,0.4-2.2,1.1-3
		c0.7-0.7,1.7-1.1,2.9-1.1c0.7,0,1.3,0.1,1.8,0.4V20c-0.5-0.4-1.1-0.6-1.7-0.6c-0.7,0-1.3,0.2-1.8,0.7c-0.5,0.5-0.7,1.1-0.7,1.9
		c0,0.8,0.2,1.4,0.6,1.8c0.4,0.4,1,0.7,1.7,0.7c0.6,0,1.2-0.2,1.7-0.6V25.4z"/>
	<path class="st1" d="M188,16.7c-0.3,0-0.5-0.1-0.7-0.3c-0.2-0.2-0.3-0.4-0.3-0.7s0.1-0.5,0.3-0.7c0.2-0.2,0.4-0.3,0.7-0.3
		c0.3,0,0.5,0.1,0.7,0.3c0.2,0.2,0.3,0.4,0.3,0.7c0,0.3-0.1,0.5-0.3,0.7C188.6,16.6,188.3,16.7,188,16.7z M188.9,25.7h-1.7v-7.5h1.7
		V25.7z"/>
	<path class="st1" d="M197.6,25.7h-1.7v-1.2h0c-0.5,0.9-1.3,1.4-2.3,1.4c-1.8,0-2.6-1.1-2.6-3.2v-4.5h1.7v4.3c0,1.3,0.5,2,1.5,2
		c0.5,0,0.9-0.2,1.2-0.6c0.3-0.4,0.5-0.9,0.5-1.4v-4.3h1.7V25.7z"/>
	<path class="st1" d="M210.6,25.7H209v-1.3h0c-0.5,1-1.4,1.4-2.5,1.4c-0.9,0-1.7-0.3-2.2-1c-0.6-0.7-0.8-1.6-0.8-2.7
		c0-1.2,0.3-2.2,0.9-3c0.6-0.7,1.4-1.1,2.4-1.1c1,0,1.7,0.4,2.2,1.2h0v-4.6h1.7V25.7z M209,22.3v-1c0-0.5-0.2-1-0.5-1.3
		s-0.8-0.6-1.3-0.6c-0.6,0-1.1,0.2-1.5,0.7c-0.4,0.5-0.5,1.1-0.5,2c0,0.8,0.2,1.4,0.5,1.8c0.3,0.4,0.8,0.7,1.4,0.7
		c0.6,0,1-0.2,1.4-0.6C208.8,23.5,209,23,209,22.3z"/>
	<path class="st1" d="M218.6,25.7h-1.6v-1.2h0c-0.5,0.9-1.3,1.3-2.3,1.3c-0.7,0-1.3-0.2-1.7-0.6c-0.4-0.4-0.6-0.9-0.6-1.6
		c0-1.4,0.8-2.2,2.4-2.5l2.2-0.3c0-1.1-0.5-1.6-1.5-1.6c-0.9,0-1.7,0.3-2.4,0.9v-1.5c0.8-0.5,1.7-0.7,2.7-0.7c1.9,0,2.8,0.9,2.8,2.8
		V25.7z M216.9,22.1l-1.6,0.2c-0.5,0.1-0.8,0.2-1.1,0.4c-0.2,0.2-0.4,0.5-0.4,0.9c0,0.3,0.1,0.6,0.3,0.8c0.2,0.2,0.5,0.3,0.9,0.3
		c0.5,0,0.9-0.2,1.3-0.5c0.3-0.4,0.5-0.8,0.5-1.4V22.1z"/>
	<path class="st1" d="M227.3,25.7h-1.7v-4.2c0-1.4-0.5-2.1-1.5-2.1c-0.5,0-0.9,0.2-1.3,0.6c-0.3,0.4-0.5,0.9-0.5,1.5v4.2h-1.7v-7.5
		h1.7v1.2h0c0.6-0.9,1.4-1.4,2.4-1.4c0.8,0,1.4,0.3,1.9,0.8s0.6,1.3,0.6,2.3V25.7z"/>
	<path class="st1" d="M235.8,18.3l-3.4,8.6c-0.7,1.5-1.7,2.3-2.9,2.3c-0.4,0-0.6,0-0.9-0.1v-1.4c0.3,0.1,0.5,0.1,0.7,0.1
		c0.6,0,1.1-0.3,1.4-0.9l0.5-1.2l-3-7.4h1.9l1.8,5.4c0,0.1,0.1,0.2,0.1,0.5h0c0-0.1,0.1-0.3,0.1-0.5l1.9-5.4H235.8z"/>
	<path class="st1" d="M242.1,25.4c-0.6,0.3-1.3,0.5-2.1,0.5c-1.1,0-2-0.3-2.7-1c-0.7-0.7-1-1.6-1-2.7c0-1.2,0.4-2.2,1.1-3
		c0.7-0.7,1.7-1.1,2.9-1.1c0.7,0,1.3,0.1,1.8,0.4V20c-0.5-0.4-1.1-0.6-1.7-0.6c-0.7,0-1.3,0.2-1.8,0.7c-0.5,0.5-0.7,1.1-0.7,1.9
		c0,0.8,0.2,1.4,0.6,1.8c0.4,0.4,1,0.7,1.7,0.7c0.6,0,1.2-0.2,1.7-0.6V25.4z"/>
	<path class="st1" d="M250.4,25.7h-1.7v-4.1c0-1.5-0.5-2.2-1.5-2.2c-0.5,0-0.9,0.2-1.3,0.6c-0.3,0.4-0.5,1-0.5,1.6v4h-1.7v-11h1.7
		v4.8h0c0.6-0.9,1.4-1.4,2.4-1.4c1.7,0,2.5,1,2.5,3V25.7z"/>
	<path class="st1" d="M260.8,16.1c-0.2-0.1-0.5-0.2-0.8-0.2c-0.8,0-1.2,0.5-1.2,1.4v1h1.7v1.3h-1.7v6.1h-1.7v-6.1h-1.3v-1.3h1.3
		v-1.2c0-0.8,0.3-1.4,0.8-1.9c0.5-0.5,1.2-0.7,1.9-0.7c0.4,0,0.7,0,1,0.1V16.1z M262.6,16.7c-0.3,0-0.5-0.1-0.7-0.3
		c-0.2-0.2-0.3-0.4-0.3-0.7s0.1-0.5,0.3-0.7c0.2-0.2,0.4-0.3,0.7-0.3c0.3,0,0.5,0.1,0.7,0.3c0.2,0.2,0.3,0.4,0.3,0.7
		c0,0.3-0.1,0.5-0.3,0.7C263.1,16.6,262.8,16.7,262.6,16.7z M263.4,25.7h-1.7v-7.5h1.7V25.7z"/>
	<path class="st1" d="M269.9,19.9c-0.2-0.2-0.5-0.2-0.9-0.2c-0.5,0-0.9,0.2-1.3,0.7c-0.3,0.5-0.5,1.1-0.5,1.8v3.6h-1.7v-7.5h1.7v1.5
		h0c0.2-0.5,0.4-0.9,0.8-1.2s0.7-0.4,1.1-0.4c0.3,0,0.5,0,0.7,0.1V19.9z"/>
	<path class="st1" d="M282.2,25.7h-1.7v-4.1c0-0.8-0.1-1.3-0.3-1.7c-0.2-0.3-0.6-0.5-1.1-0.5c-0.4,0-0.8,0.2-1.1,0.7
		c-0.3,0.4-0.5,1-0.5,1.6v4h-1.7v-4.2c0-1.4-0.5-2.1-1.5-2.1c-0.5,0-0.8,0.2-1.1,0.6c-0.3,0.4-0.4,1-0.4,1.6v4h-1.7v-7.5h1.7v1.2h0
		c0.5-0.9,1.3-1.4,2.4-1.4c0.5,0,1,0.1,1.3,0.4s0.6,0.7,0.8,1.1c0.6-1,1.4-1.5,2.5-1.5c1.6,0,2.5,1,2.5,3V25.7z"/>
	<path class="st1" d="M290.7,18.3l-3.4,8.6c-0.7,1.5-1.7,2.3-2.9,2.3c-0.4,0-0.6,0-0.9-0.1v-1.4c0.3,0.1,0.5,0.1,0.7,0.1
		c0.6,0,1.1-0.3,1.4-0.9l0.5-1.2l-3-7.4h1.9l1.8,5.4c0,0.1,0.1,0.2,0.1,0.5h0c0-0.1,0.1-0.3,0.1-0.5l1.9-5.4H290.7z"/>
	<path class="st1" d="M307.4,25.7h-1.7V19c0-0.6,0-1.2,0.1-2h0c-0.1,0.5-0.2,0.8-0.3,1l-3.1,7.8h-1.2L298,18c-0.1-0.2-0.2-0.6-0.3-1
		h0c0,0.4,0.1,1.1,0.1,2v6.7h-1.6V15.3h2.4l2.7,6.9c0.2,0.5,0.3,0.9,0.4,1.2h0c0.2-0.5,0.3-1,0.4-1.2l2.8-6.9h2.3V25.7z"/>
	<path class="st1" d="M310.6,16.7c-0.3,0-0.5-0.1-0.7-0.3c-0.2-0.2-0.3-0.4-0.3-0.7s0.1-0.5,0.3-0.7c0.2-0.2,0.4-0.3,0.7-0.3
		c0.3,0,0.5,0.1,0.7,0.3c0.2,0.2,0.3,0.4,0.3,0.7c0,0.3-0.1,0.5-0.3,0.7C311.1,16.6,310.9,16.7,310.6,16.7z M311.4,25.7h-1.7v-7.5
		h1.7V25.7z"/>
	<path class="st1" d="M319,25.4c-0.6,0.3-1.3,0.5-2.1,0.5c-1.1,0-2-0.3-2.7-1c-0.7-0.7-1-1.6-1-2.7c0-1.2,0.4-2.2,1.1-3
		c0.7-0.7,1.7-1.1,2.9-1.1c0.7,0,1.3,0.1,1.8,0.4V20c-0.5-0.4-1.1-0.6-1.7-0.6c-0.7,0-1.3,0.2-1.8,0.7c-0.5,0.5-0.7,1.1-0.7,1.9
		c0,0.8,0.2,1.4,0.6,1.8c0.4,0.4,1,0.7,1.7,0.7c0.6,0,1.2-0.2,1.7-0.6V25.4z"/>
	<path class="st1" d="M325,19.9c-0.2-0.2-0.5-0.2-0.9-0.2c-0.5,0-0.9,0.2-1.3,0.7c-0.3,0.5-0.5,1.1-0.5,1.8v3.6h-1.7v-7.5h1.7v1.5h0
		c0.2-0.5,0.4-0.9,0.8-1.2s0.7-0.4,1.1-0.4c0.3,0,0.5,0,0.7,0.1V19.9z"/>
	<path class="st1" d="M329.3,25.9c-1.1,0-2.1-0.3-2.8-1c-0.7-0.7-1-1.6-1-2.8c0-1.3,0.4-2.2,1.1-2.9c0.7-0.7,1.7-1.1,2.9-1.1
		c1.2,0,2.1,0.3,2.7,1c0.7,0.7,1,1.6,1,2.8c0,1.2-0.4,2.1-1.1,2.9S330.5,25.9,329.3,25.9z M329.4,19.4c-0.7,0-1.2,0.2-1.6,0.7
		c-0.4,0.5-0.6,1.1-0.6,1.9c0,0.8,0.2,1.4,0.6,1.8c0.4,0.4,0.9,0.7,1.6,0.7c0.7,0,1.2-0.2,1.5-0.7s0.5-1.1,0.5-1.9
		c0-0.8-0.2-1.5-0.5-1.9S330.1,19.4,329.4,19.4z"/>
	<path class="st1" d="M334.4,25.5v-1.6c0.6,0.5,1.3,0.7,2.1,0.7c1,0,1.5-0.3,1.5-0.9c0-0.2,0-0.3-0.1-0.4c-0.1-0.1-0.2-0.2-0.4-0.3
		c-0.1-0.1-0.3-0.2-0.5-0.2c-0.2-0.1-0.4-0.2-0.7-0.2c-0.3-0.1-0.6-0.2-0.8-0.4s-0.4-0.3-0.6-0.5c-0.2-0.2-0.3-0.4-0.4-0.6
		c-0.1-0.2-0.1-0.5-0.1-0.8c0-0.4,0.1-0.7,0.3-0.9c0.2-0.3,0.4-0.5,0.7-0.7s0.6-0.3,1-0.4c0.4-0.1,0.7-0.1,1.1-0.1
		c0.7,0,1.3,0.1,1.8,0.3v1.5c-0.5-0.4-1.1-0.5-1.8-0.5c-0.2,0-0.4,0-0.6,0.1c-0.2,0-0.3,0.1-0.4,0.2c-0.1,0.1-0.2,0.2-0.3,0.3
		c-0.1,0.1-0.1,0.2-0.1,0.4c0,0.2,0,0.3,0.1,0.4c0.1,0.1,0.2,0.2,0.3,0.3c0.1,0.1,0.3,0.2,0.5,0.2s0.4,0.1,0.6,0.2
		c0.3,0.1,0.6,0.3,0.9,0.4s0.5,0.3,0.7,0.5c0.2,0.2,0.3,0.4,0.4,0.6c0.1,0.2,0.1,0.5,0.1,0.8c0,0.4-0.1,0.7-0.3,1
		c-0.2,0.3-0.4,0.5-0.7,0.7s-0.6,0.3-1,0.4s-0.8,0.1-1.2,0.1C335.8,25.9,335,25.8,334.4,25.5z"/>
	<path class="st1" d="M344.6,25.9c-1.1,0-2.1-0.3-2.8-1c-0.7-0.7-1-1.6-1-2.8c0-1.3,0.4-2.2,1.1-2.9c0.7-0.7,1.7-1.1,2.9-1.1
		c1.2,0,2.1,0.3,2.7,1c0.7,0.7,1,1.6,1,2.8c0,1.2-0.4,2.1-1.1,2.9S345.8,25.9,344.6,25.9z M344.7,19.4c-0.7,0-1.2,0.2-1.6,0.7
		c-0.4,0.5-0.6,1.1-0.6,1.9c0,0.8,0.2,1.4,0.6,1.8c0.4,0.4,0.9,0.7,1.6,0.7c0.7,0,1.2-0.2,1.5-0.7s0.5-1.1,0.5-1.9
		c0-0.8-0.2-1.5-0.5-1.9S345.4,19.4,344.7,19.4z"/>
	<path class="st1" d="M354.2,16.1c-0.2-0.1-0.5-0.2-0.8-0.2c-0.8,0-1.2,0.5-1.2,1.4v1h1.7v1.3h-1.7v6.1h-1.7v-6.1h-1.3v-1.3h1.3
		v-1.2c0-0.8,0.3-1.4,0.8-1.9c0.5-0.5,1.2-0.7,1.9-0.7c0.4,0,0.7,0,1,0.1V16.1z"/>
	<path class="st1" d="M359.3,25.6c-0.3,0.2-0.8,0.2-1.3,0.2c-1.4,0-2.2-0.7-2.2-2.1v-4.2h-1.2v-1.3h1.2v-1.7l1.7-0.5v2.2h1.8v1.3
		h-1.8v3.7c0,0.4,0.1,0.8,0.2,0.9s0.4,0.3,0.8,0.3c0.3,0,0.5-0.1,0.7-0.2V25.6z"/>
</g>
</svg>
