<?xml version="1.0" encoding="utf-8"?>
<!-- Generator: Adobe Illustrator 22.1.0, SVG Export Plug-In . SVG Version: 6.00 Build 0)  -->
<svg version="1.1" id="Layer_1" xmlns="http://www.w3.org/2000/svg" xmlns:xlink="http://www.w3.org/1999/xlink" x="0px" y="0px"
	 viewBox="0 0 132 41" style="enable-background:new 0 0 132 41;" xml:space="preserve">
<style type="text/css">
	.st0{enable-background:new    ;}
	.st1{fill:#FFFFFF;}
</style>
<image style="overflow:visible;enable-background:new    ;" width="132" height="41" id="Background_copy" xlink:href="EF1EF01B.jpg" >
</image>
<g id="Zaloguj_się" class="st0">
	<path class="st1" d="M53.1,16l-5.5,7.9h5.5v1.4h-7.8v-0.8l5.5-7.9h-5.1v-1.4h7.4V16z"/>
	<path class="st1" d="M60,25.3h-1.6v-1.1h0c-0.5,0.9-1.2,1.3-2.2,1.3c-0.7,0-1.3-0.2-1.7-0.6C54.2,24.5,54,24,54,23.4
		c0-1.4,0.8-2.2,2.3-2.4l2.1-0.3c0-1-0.5-1.5-1.5-1.5c-0.9,0-1.6,0.3-2.3,0.9v-1.4c0.8-0.5,1.6-0.7,2.6-0.7c1.8,0,2.7,0.9,2.7,2.7
		V25.3z M58.5,21.8L57,22c-0.5,0.1-0.8,0.2-1.1,0.3c-0.2,0.2-0.4,0.5-0.4,0.9c0,0.3,0.1,0.6,0.3,0.7c0.2,0.2,0.5,0.3,0.9,0.3
		c0.5,0,0.9-0.2,1.2-0.5c0.3-0.3,0.5-0.8,0.5-1.3V21.8z"/>
	<path class="st1" d="M63.7,25.3H62V14.7h1.6V25.3z"/>
	<path class="st1" d="M69,25.5c-1.1,0-2-0.3-2.7-1c-0.7-0.7-1-1.6-1-2.7c0-1.2,0.3-2.2,1-2.8s1.6-1,2.8-1c1.1,0,2,0.3,2.6,1
		c0.6,0.7,0.9,1.6,0.9,2.7c0,1.1-0.3,2.1-1,2.8S70.1,25.5,69,25.5z M69.1,19.3c-0.6,0-1.1,0.2-1.5,0.7C67.2,20.4,67,21,67,21.8
		c0,0.8,0.2,1.3,0.6,1.8s0.9,0.7,1.5,0.7c0.6,0,1.1-0.2,1.5-0.6c0.3-0.4,0.5-1,0.5-1.8c0-0.8-0.2-1.4-0.5-1.8
		C70.2,19.5,69.7,19.3,69.1,19.3z"/>
	<path class="st1" d="M80.9,24.7c0,2.6-1.3,4-4,4c-0.9,0-1.8-0.2-2.5-0.5v-1.5c0.8,0.4,1.5,0.7,2.2,0.7c1.7,0,2.6-0.8,2.6-2.5v-0.8
		h0c-0.5,0.9-1.4,1.4-2.4,1.4c-0.9,0-1.6-0.3-2.1-1c-0.5-0.6-0.8-1.5-0.8-2.6c0-1.2,0.3-2.2,0.9-2.9c0.6-0.7,1.4-1.1,2.4-1.1
		c1,0,1.7,0.4,2.1,1.2h0v-1h1.6V24.7z M79.3,22v-0.9c0-0.5-0.2-0.9-0.5-1.3c-0.3-0.4-0.8-0.5-1.3-0.5c-0.6,0-1.1,0.2-1.5,0.7
		s-0.5,1.1-0.5,1.9c0,0.7,0.2,1.3,0.5,1.7c0.3,0.4,0.8,0.6,1.3,0.6c0.6,0,1-0.2,1.4-0.6S79.3,22.7,79.3,22z"/>
	<path class="st1" d="M89.3,25.3h-1.6v-1.1h0c-0.5,0.9-1.2,1.3-2.2,1.3c-1.7,0-2.6-1-2.6-3.1v-4.3h1.6v4.1c0,1.3,0.5,1.9,1.5,1.9
		c0.5,0,0.9-0.2,1.2-0.5c0.3-0.4,0.5-0.8,0.5-1.4v-4.1h1.6V25.3z"/>
	<path class="st1" d="M93.1,25c0,1.2-0.2,2.1-0.7,2.7c-0.5,0.6-1.2,1-2.1,1c-0.3,0-0.7-0.1-1-0.2v-1.4c0.3,0.2,0.6,0.3,0.9,0.3
		c0.9,0,1.4-0.8,1.4-2.4v-6.8h1.6V25z M92.3,16.6c-0.3,0-0.5-0.1-0.7-0.3c-0.2-0.2-0.3-0.4-0.3-0.7c0-0.3,0.1-0.5,0.3-0.7
		c0.2-0.2,0.4-0.3,0.7-0.3c0.3,0,0.5,0.1,0.7,0.3c0.2,0.2,0.3,0.4,0.3,0.7c0,0.3-0.1,0.5-0.3,0.7C92.8,16.5,92.6,16.6,92.3,16.6z"/>
	<path class="st1" d="M98.7,25.1v-1.5c0.6,0.5,1.3,0.7,2,0.7c1,0,1.5-0.3,1.5-0.9c0-0.2,0-0.3-0.1-0.4c-0.1-0.1-0.2-0.2-0.3-0.3
		s-0.3-0.2-0.5-0.2c-0.2-0.1-0.4-0.1-0.7-0.2c-0.3-0.1-0.6-0.2-0.8-0.4c-0.2-0.1-0.4-0.3-0.6-0.4c-0.2-0.2-0.3-0.4-0.4-0.6
		s-0.1-0.5-0.1-0.7c0-0.3,0.1-0.7,0.2-0.9c0.2-0.3,0.4-0.5,0.7-0.7c0.3-0.2,0.6-0.3,0.9-0.4c0.4-0.1,0.7-0.1,1.1-0.1
		c0.7,0,1.3,0.1,1.8,0.3v1.4c-0.5-0.3-1.1-0.5-1.7-0.5c-0.2,0-0.4,0-0.6,0.1s-0.3,0.1-0.4,0.2c-0.1,0.1-0.2,0.2-0.3,0.3
		c-0.1,0.1-0.1,0.2-0.1,0.3c0,0.2,0,0.3,0.1,0.4c0.1,0.1,0.2,0.2,0.3,0.3s0.3,0.2,0.5,0.2c0.2,0.1,0.4,0.1,0.6,0.2
		c0.3,0.1,0.6,0.3,0.8,0.4c0.2,0.1,0.5,0.3,0.6,0.4c0.2,0.2,0.3,0.4,0.4,0.6s0.1,0.5,0.1,0.8c0,0.4-0.1,0.7-0.3,1
		c-0.2,0.3-0.4,0.5-0.7,0.7c-0.3,0.2-0.6,0.3-1,0.4c-0.4,0.1-0.8,0.1-1.2,0.1C100,25.5,99.3,25.4,98.7,25.1z"/>
	<path class="st1" d="M106.2,16.6c-0.3,0-0.5-0.1-0.7-0.3c-0.2-0.2-0.3-0.4-0.3-0.7c0-0.3,0.1-0.5,0.3-0.7s0.4-0.3,0.7-0.3
		c0.3,0,0.5,0.1,0.7,0.3s0.3,0.4,0.3,0.7c0,0.3-0.1,0.5-0.3,0.7C106.7,16.5,106.5,16.6,106.2,16.6z M107,25.3h-1.6v-7.2h1.6V25.3z"
		/>
	<path class="st1" d="M115.3,22.2h-4.9c0,0.7,0.2,1.2,0.6,1.5s0.9,0.5,1.6,0.5c0.8,0,1.5-0.2,2.1-0.7v1.3c-0.7,0.4-1.5,0.6-2.6,0.6
		c-1.1,0-1.9-0.3-2.5-1c-0.6-0.7-0.9-1.6-0.9-2.8c0-1.1,0.3-2,1-2.7s1.5-1.1,2.5-1.1s1.7,0.3,2.3,0.9s0.8,1.5,0.8,2.6V22.2z
		 M113.7,21c0-0.6-0.1-1-0.4-1.4s-0.6-0.5-1.1-0.5c-0.5,0-0.9,0.2-1.2,0.5c-0.3,0.3-0.5,0.8-0.6,1.3H113.7z M113.6,25.3
		c-0.7,0.6-1.1,1.1-1.1,1.5c0,0.3,0.2,0.5,0.5,0.5c0.2,0,0.3,0,0.5-0.1v0.9c-0.2,0.1-0.4,0.1-0.7,0.1c-0.4,0-0.7-0.1-0.9-0.3
		c-0.2-0.2-0.3-0.5-0.3-0.8c0-0.6,0.4-1.2,1.1-1.8H113.6z"/>
</g>
</svg>
